<svg xmlns="http://www.w3.org/2000/svg">
    <defs>
        <symbol id="first-screen-bg" width="1275" height="1271" viewBox="0 0 1275 1271" fill="none" xmlns="http://www.w3.org/2000/svg">
          <path opacity="0.2" d="M193.91 233.568L260.473 296.982L260.124 257.484L212.711 210.901L212.225 155.903L160.777 105.355L158.728 -126.636L99.4964 -152.614L15.2337 -125.368L30.4318 -103.002L99.7304 -126.115L139.928 -103.969L141.945 124.522L193.376 173.07L193.91 233.568Z" fill="#9214FF"/>
          <path opacity="0.2" d="M223.91 209.568L290.473 272.982L274.5 249.5L229.5 204L229.5 141L177 93L177 -140L129.496 -176.614L45.2337 -149.368L60.4318 -127.002L129.73 -150.115L169.928 -127.969L171.945 100.522L223.376 149.07L223.91 209.568Z" fill="#9214FF"/>
          <path opacity="0.2" d="M55.9104 684.568L122.473 747.982L106.5 724.5L61.5 679L61.5 616L9 568L9 335L-38.5037 298.386L-122.766 325.632L-107.568 347.998L-38.2696 324.885L1.92752 347.031L3.94542 575.522L55.3762 624.07L55.9104 684.568Z" fill="#9214FF"/>
          <path opacity="0.2" d="M880.5 46.5V0H853V62.5L941.5 147V238.5L1049 336H1155.5L1250 425V507.5L1274.5 483V413L1178.5 320H1074L965 218V125L880.5 46.5Z" fill="#9214FF"/>
          <path opacity="0.1" d="M356.789 884.203L400.57 899.869L409.835 873.976L350.989 852.92L241.613 907.778L155.462 876.952L27.445 945.32L-8.43472 1045.59L-124.069 1104.59L-201.746 1076.79L-186.932 1108.11L-121.024 1131.7L-1.11875 1072.64L34.0872 974.249L166.846 905.985L254.41 937.316L356.789 884.203Z" fill="#143AFF"/>
        </symbol>

        <symbol id="arrow-down" width="36" height="22" viewBox="0 0 36 22" fill="none" xmlns="http://www.w3.org/2000/svg">
          <path d="M1.73061 0.00297546L17.9988 18.1412L34.2694 0.000244141L36 1.92978L17.9988 22.0002L0 1.93251L1.73061 0.00297546Z" fill="#9A27E1"/>
        </symbol>

        <symbol id="message" viewBox="0 0 91 69" fill="none" xmlns="http://www.w3.org/2000/svg">
          <path d="M0.939453 0V69H90.9395V0H0.939453ZM45.9077 41.4903L9.39945 5.30767H82.5641L45.9077 41.4903ZM31.4072 34.5849L6.2336 59.4352V9.63344L31.4072 34.5849ZM35.1712 38.3162L45.8971 48.9476L56.4643 38.5126L81.876 63.6921H9.46827L35.1712 38.3162ZM60.239 34.792L85.6451 9.71305V59.961L60.239 34.792Z" fill="white"/>
        </symbol>

        <symbol id="check" width="26" height="27" viewBox="0 0 26 27" fill="none" xmlns="http://www.w3.org/2000/svg">
          <g clip-path="url(#clip0)">
          <path d="M13 5.50563e-05C20.1797 5.50563e-05 26 6.04421 26 13.5C26 20.9558 20.1797 27 13 27C5.82035 27 5.39222e-05 20.9558 5.39222e-05 13.5C-0.0203754 6.06536 5.76677 0.0212701 12.926 5.50563e-05C12.9507 -1.83521e-05 12.9753 -1.83521e-05 13 5.50563e-05Z" fill="#8725FB"/>
          <path d="M20.2002 9.78052L10.9673 19.3685L5.79688 14.0376L7.90201 11.8899L10.9673 15.0348L18.0952 7.63281L20.2002 9.78052Z" fill="white"/>
          </g>
          <defs>
          <clipPath id="clip0">
          <rect width="26" height="27" fill="white"/>
          </clipPath>
          </defs>
        </symbol>

        <symbol id="name" viewBox="0 0 38 37" fill="none" xmlns="http://www.w3.org/2000/svg">
          <path d="M32.7603 6.08343H24.6666V5.69782C24.6666 4.21017 23.4564 3 21.9688 3H15.0312C13.5436 3 12.3334 4.21017 12.3334 5.69782V6.08343H4.23968C1.90092 6.08343 0 7.98407 0 10.3228V29.5938C0 31.9325 1.90092 33.8334 4.23968 33.8334H32.7603C35.0991 33.8334 37 31.9325 37 29.5938V10.3228C37 7.98407 35.0991 6.08343 32.7603 6.08343ZM21.5848 9.16657H15.4166V6.08343H21.5834L21.5848 9.16657ZM11.5625 13.7916C13.687 13.7916 15.4166 15.5214 15.4166 17.6459C15.4166 19.7701 13.687 21.5 11.5625 21.5C9.438 21.5 7.70843 19.7701 7.70843 17.6459C7.70843 15.5214 9.438 13.7916 11.5625 13.7916ZM18.5 28.0522C18.5 28.6904 17.982 29.2084 17.3438 29.2084H5.78125C5.143 29.2084 4.625 28.6904 4.625 28.0522V27.2812C4.625 24.9425 6.52592 23.0416 8.86468 23.0416H14.2603C16.5991 23.0416 18.5 24.9425 18.5 27.2812V28.0522ZM31.2188 29.2084H22.7397C22.1014 29.2084 21.5834 28.6904 21.5834 28.0522C21.5834 27.4139 22.1014 26.8959 22.7397 26.8959H31.2188C31.857 26.8959 32.375 27.4139 32.375 28.0522C32.375 28.6904 31.857 29.2084 31.2188 29.2084ZM31.2188 23.0416H22.7397C22.1014 23.0416 21.5834 22.5236 21.5834 21.8853C21.5834 21.2471 22.1014 20.7291 22.7397 20.7291H31.2188C31.857 20.7291 32.375 21.2471 32.375 21.8853C32.375 22.5236 31.857 23.0416 31.2188 23.0416ZM31.2188 16.875H22.7397C22.1014 16.875 21.5834 16.357 21.5834 15.7188C21.5834 15.0805 22.1014 14.5625 22.7397 14.5625H31.2188C31.857 14.5625 32.375 15.0805 32.375 15.7188C32.375 16.357 31.857 16.875 31.2188 16.875Z" fill="white"/>
        </symbol>

        <symbol id="email" viewBox="0 0 38 37" fill="none" xmlns="http://www.w3.org/2000/svg">
          <path d="M25.5261 17.9084L37.9998 25.7941V9.68977L25.5261 17.9084Z" fill="white"/>
          <path d="M1 9.68977V25.7941L13.4737 17.9084L1 9.68977Z" fill="white"/>
          <path d="M35.6876 5H3.31247C2.15853 5 1.24277 5.86025 1.06934 6.96795L19.5 19.1109L37.9307 6.96795C37.7573 5.86025 36.8415 5 35.6876 5Z" fill="white"/>
          <path d="M23.4082 19.3052L20.136 21.4604C19.9417 21.5876 19.722 21.6501 19.5 21.6501C19.278 21.6501 19.0584 21.5876 18.8641 21.4604L15.5919 19.3029L1.07397 28.4858C1.25204 29.5843 2.16317 30.4376 3.31248 30.4376H35.6876C36.8369 30.4376 37.7481 29.5843 37.9261 28.4858L23.4082 19.3052Z" fill="white"/>
        </symbol>

        <symbol id="person" viewBox="0 0 31 37" fill="none" xmlns="http://www.w3.org/2000/svg">
          <path d="M15.2013 17.8229C17.6498 17.8229 19.7701 16.9447 21.5025 15.2121C23.2349 13.4797 24.1131 11.36 24.1131 8.91119C24.1131 6.46321 23.2349 4.34324 21.5022 2.61029C19.7695 0.87819 17.6496 0 15.2013 0C12.7525 0 10.6328 0.87819 8.90041 2.61058C7.16802 4.34296 6.28955 6.46293 6.28955 8.91119C6.28955 11.36 7.16802 13.48 8.90069 15.2124C10.6334 16.9445 12.7533 17.8229 15.2013 17.8229Z" fill="white"/>
          <path d="M30.7942 28.451C30.7443 27.73 30.6432 26.9436 30.4944 26.1131C30.3443 25.2764 30.1509 24.4854 29.9194 23.7625C29.6803 23.0153 29.3551 22.2774 28.9532 21.5703C28.536 20.8363 28.0459 20.1972 27.496 19.6713C26.921 19.1212 26.217 18.6788 25.4029 18.3562C24.5916 18.0352 23.6925 17.8726 22.7308 17.8726C22.3531 17.8726 21.9878 18.0276 21.2823 18.4869C20.8482 18.77 20.3404 19.0975 19.7735 19.4596C19.2888 19.7684 18.6322 20.0578 17.8212 20.3198C17.03 20.5758 16.2266 20.7056 15.4337 20.7056C14.6407 20.7056 13.8376 20.5758 13.0455 20.3198C12.2354 20.0581 11.5788 19.7687 11.0947 19.4599C10.5332 19.1011 10.0251 18.7737 9.58444 18.4866C8.87985 18.0273 8.51429 17.8723 8.1366 17.8723C7.17457 17.8723 6.27577 18.0352 5.46476 18.3565C4.65122 18.6785 3.94692 19.1209 3.37134 19.6716C2.82173 20.1978 2.3314 20.8366 1.91474 21.5703C1.51305 22.2774 1.18786 23.015 0.948479 23.7628C0.717287 24.4857 0.523922 25.2764 0.373746 26.1131C0.224981 26.9425 0.123923 27.7292 0.0739588 28.4518C0.0248411 29.1598 0 29.8946 0 30.6367C0 32.5681 0.613971 34.1317 1.82469 35.2848C3.02045 36.4227 4.60266 37 6.52672 37H24.3423C26.2664 37 27.848 36.423 29.0441 35.2848C30.2551 34.1325 30.869 32.5687 30.869 30.6364C30.8688 29.8909 30.8436 29.1556 30.7942 28.451Z" fill="white"/>
        </symbol>

        <symbol id="linkedin" viewBox="0 0 37 37" fill="none" xmlns="http://www.w3.org/2000/svg">
          <path d="M18.5 0C8.28429 0 0 8.28429 0 18.5C0 28.7157 8.28429 37 18.5 37C28.7157 37 37 28.7157 37 18.5C37 8.28429 28.7157 0 18.5 0ZM13.1241 27.9668H8.61852V14.4116H13.1241V27.9668ZM10.8715 12.5607H10.8421C9.33017 12.5607 8.35233 11.5199 8.35233 10.2191C8.35233 8.88895 9.36009 7.87695 10.9014 7.87695C12.4427 7.87695 13.3912 8.88895 13.4205 10.2191C13.4205 11.5199 12.4427 12.5607 10.8715 12.5607ZM29.3703 27.9668H24.8653V20.7151C24.8653 18.8927 24.2129 17.6497 22.5827 17.6497C21.3381 17.6497 20.5968 18.4881 20.2711 19.2975C20.1519 19.5871 20.1229 19.9919 20.1229 20.397V27.9668H15.6176C15.6176 27.9668 15.6766 15.6833 15.6176 14.4116H20.1229V16.3309C20.7216 15.4073 21.7929 14.0935 24.1833 14.0935C27.1476 14.0935 29.3703 16.0308 29.3703 20.1943V27.9668Z" fill="white"/>
        </symbol>


        <symbol id="smartphone" viewBox="0 0 20 37" fill="none" xmlns="http://www.w3.org/2000/svg">
          <path d="M9.99539 33.9171C10.0856 33.9171 10.1738 33.8903 10.2488 33.8402C10.3239 33.7901 10.3824 33.7189 10.4169 33.6355C10.4514 33.5522 10.4605 33.4605 10.4429 33.372C10.4253 33.2835 10.3819 33.2022 10.3181 33.1384C10.2543 33.0746 10.173 33.0311 10.0845 33.0135C9.99601 32.9959 9.90428 33.0049 9.82092 33.0395C9.73757 33.074 9.66632 33.1324 9.61619 33.2075C9.56606 33.2825 9.53931 33.3707 9.53931 33.4609C9.53942 33.5818 9.5875 33.6978 9.67301 33.7833C9.75851 33.8688 9.87446 33.9169 9.99539 33.9171Z" fill="white"/>
          <path d="M0 33.942C0.000914014 34.7527 0.323362 35.5299 0.896604 36.1031C1.46985 36.6764 2.24707 36.9988 3.05775 36.9998H16.9334C17.744 36.9988 18.5213 36.6764 19.0945 36.1031C19.6677 35.5299 19.9902 34.7527 19.9911 33.942V30.277H0V33.942ZM9.99556 32.1826C10.2484 32.1826 10.4956 32.2576 10.7058 32.398C10.9161 32.5385 11.0799 32.7382 11.1767 32.9717C11.2735 33.2053 11.2988 33.4624 11.2495 33.7104C11.2001 33.9584 11.0784 34.1862 10.8996 34.365C10.7208 34.5438 10.493 34.6655 10.245 34.7148C9.99703 34.7642 9.73999 34.7388 9.50639 34.6421C9.27279 34.5453 9.07313 34.3814 8.93267 34.1712C8.7922 33.9609 8.71724 33.7138 8.71726 33.4609C8.71767 33.122 8.85248 32.7971 9.09212 32.5575C9.33176 32.3178 9.65666 32.183 9.99556 32.1826Z" fill="white"/>
          <path d="M16.9334 0H3.05775C2.24707 0.000914014 1.46985 0.323363 0.896604 0.896604C0.323362 1.46985 0.000914014 2.24707 0 3.05775V4.42683H1.43535C1.54438 4.42683 1.64895 4.47014 1.72605 4.54724C1.80314 4.62434 1.84646 4.72891 1.84646 4.83794C1.84646 4.94697 1.80314 5.05154 1.72605 5.12864C1.64895 5.20574 1.54438 5.24905 1.43535 5.24905H0V29.4552H19.9911V5.24905H4.93973C4.8307 5.24905 4.72613 5.20574 4.64903 5.12864C4.57194 5.05154 4.52862 4.94697 4.52862 4.83794C4.52862 4.72891 4.57194 4.62434 4.64903 4.54724C4.72613 4.47014 4.8307 4.42683 4.93973 4.42683H19.9911V3.05775C19.9902 2.24707 19.6678 1.46985 19.0945 0.896604C18.5213 0.323363 17.7441 0.000914014 16.9334 0ZM13.4725 16.5283C13.5496 16.6054 13.5929 16.7099 13.5929 16.819C13.5929 16.928 13.5496 17.0326 13.4725 17.1097L9.98512 20.597C9.94713 20.636 9.90178 20.667 9.85169 20.6883C9.80161 20.7096 9.7478 20.7208 9.69337 20.7211C9.63895 20.7215 9.585 20.711 9.53465 20.6904C9.48429 20.6697 9.43855 20.6392 9.40006 20.6008C9.36157 20.5623 9.33111 20.5165 9.31044 20.4662C9.28977 20.4158 9.2793 20.3619 9.27964 20.3075C9.27998 20.253 9.29112 20.1992 9.31242 20.1491C9.33373 20.0991 9.36476 20.0537 9.40373 20.0157L12.8912 16.5283C12.9683 16.4512 13.0728 16.4079 13.1818 16.4079C13.2908 16.4079 13.3954 16.4512 13.4725 16.5283ZM4.87206 20.8396L11.6939 13.9379C11.7317 13.8988 11.7769 13.8675 11.8268 13.846C11.8768 13.8245 11.9305 13.8131 11.9849 13.8125C12.0392 13.8119 12.0932 13.822 12.1436 13.8424C12.194 13.8628 12.2399 13.893 12.2786 13.9312C12.3172 13.9694 12.3479 14.015 12.3689 14.0651C12.3899 14.1153 12.4007 14.1692 12.4007 14.2235C12.4007 14.2779 12.3899 14.3317 12.3689 14.3819C12.348 14.4321 12.3173 14.4776 12.2786 14.5159L5.45691 21.4175C5.38027 21.4951 5.27596 21.539 5.16693 21.5396C5.05789 21.5403 4.95307 21.4976 4.87552 21.421C4.79796 21.3443 4.75403 21.24 4.75338 21.131C4.75273 21.0219 4.79542 20.9171 4.87206 20.8396ZM3.17377 5.24905H3.15691C3.04788 5.24905 2.94331 5.20574 2.86621 5.12864C2.78912 5.05154 2.7458 4.94697 2.7458 4.83794C2.7458 4.72891 2.78912 4.62434 2.86621 4.54724C2.94331 4.47014 3.04788 4.42683 3.15691 4.42683H3.17377C3.2828 4.42683 3.38737 4.47014 3.46447 4.54724C3.54156 4.62434 3.58488 4.72891 3.58488 4.83794C3.58488 4.94697 3.54156 5.05154 3.46447 5.12864C3.38737 5.20574 3.2828 5.24905 3.17377 5.24905Z" fill="white"/>
        </symbol>

        <symbol id="play" viewBox="0 0 108 108" fill="none" xmlns="http://www.w3.org/2000/svg">
          <path d="M54 0C24.2226 0 0 24.2249 0 54C0 83.7751 24.2226 108 54 108C83.7774 108 108 83.7751 108 54C108 24.2249 83.7774 0 54 0ZM54 103.5C26.7055 103.5 4.49993 81.2945 4.49993 54C4.49993 26.7055 26.7055 4.49993 54 4.49993C81.2945 4.49993 103.5 26.7055 103.5 54C103.5 81.2945 81.2945 103.5 54 103.5Z" fill="#E5E5E5"/>
          <path d="M75.4673 52.1081L43.9674 31.8581C43.2774 31.4078 42.3854 31.3835 41.6734 31.7746C40.9482 32.1701 40.5 32.9261 40.5 33.75V74.25C40.5 75.0739 40.9482 75.8299 41.6734 76.2254C42.0074 76.4079 42.3809 76.5001 42.7501 76.5001C43.1719 76.5001 43.5983 76.3813 43.9674 76.1419L75.4673 55.8919C76.109 55.4789 76.5001 54.7647 76.5001 54C76.5001 53.2354 76.109 52.5213 75.4673 52.1081ZM44.9999 70.1279V37.8721L70.0884 54L44.9999 70.1279Z" fill="#E5E5E5"/>
        </symbol>

    </defs>
</svg>