<svg width="1275" height="1271" viewBox="0 0 1275 1271" fill="none" xmlns="http://www.w3.org/2000/svg">
  <path opacity="0.2" d="M193.91 233.568L260.473 296.982L260.124 257.484L212.711 210.901L212.225 155.903L160.777 105.355L158.728 -126.636L99.4964 -152.614L15.2337 -125.368L30.4318 -103.002L99.7304 -126.115L139.928 -103.969L141.945 124.522L193.376 173.07L193.91 233.568Z" fill="#9214FF"/>
  <path opacity="0.2" d="M223.91 209.568L290.473 272.982L274.5 249.5L229.5 204L229.5 141L177 93L177 -140L129.496 -176.614L45.2337 -149.368L60.4318 -127.002L129.73 -150.115L169.928 -127.969L171.945 100.522L223.376 149.07L223.91 209.568Z" fill="#9214FF"/>
  <path opacity="0.2" d="M55.9104 684.568L122.473 747.982L106.5 724.5L61.5 679L61.5 616L9 568L9 335L-38.5037 298.386L-122.766 325.632L-107.568 347.998L-38.2696 324.885L1.92752 347.031L3.94542 575.522L55.3762 624.07L55.9104 684.568Z" fill="#9214FF"/>
  <path opacity="0.2" d="M880.5 46.5V0H853V62.5L941.5 147V238.5L1049 336H1155.5L1250 425V507.5L1274.5 483V413L1178.5 320H1074L965 218V125L880.5 46.5Z" fill="#9214FF"/>
  <path opacity="0.1" d="M356.789 884.203L400.57 899.869L409.835 873.976L350.989 852.92L241.613 907.778L155.462 876.952L27.445 945.32L-8.43472 1045.59L-124.069 1104.59L-201.746 1076.79L-186.932 1108.11L-121.024 1131.7L-1.11875 1072.64L34.0872 974.249L166.846 905.985L254.41 937.316L356.789 884.203Z" fill="#143AFF"/>
</svg>
