<svg width="1432" height="1491" viewBox="0 0 1432 1491" fill="none" xmlns="http://www.w3.org/2000/svg">
<g opacity="0.7">
<path opacity="0.2" d="M1015.89 405.57L952.746 472.388L992.243 471.88L1038.63 424.279L1093.63 423.571L1143.97 371.919L1375.95 368.933L1401.69 309.596L1374.1 225.444L1351.8 240.733L1375.19 309.937L1353.21 350.224L1124.73 353.165L1076.39 404.791L1015.89 405.57Z" fill="#9214FF"/>
<path opacity="0.2" d="M1040.01 435.473L976.867 502.291L1000.29 486.223L1045.6 441.04L1108.6 440.785L1156.39 388.092L1389.39 387.15L1425.81 339.499L1398.22 255.347L1375.92 270.636L1399.31 339.84L1377.33 380.126L1148.85 383.068L1100.51 434.694L1040.01 435.473Z" fill="#9214FF"/>
<path opacity="0.2" d="M564.338 269.393L501.193 336.212L524.61 320.144L569.928 274.96L632.928 274.706L680.715 222.012L913.713 221.071L950.134 173.42L922.549 89.2677L900.244 104.556L923.637 173.761L901.653 214.047L673.172 216.988L624.833 268.615L564.338 269.393Z" fill="#9214FF"/>
<path opacity="0.1" d="M365.92 571.076L350.431 614.92L376.36 624.08L397.179 565.149L341.879 455.996L372.357 369.721L303.472 241.982L203.054 206.507L143.596 91.1125L171.076 13.3238L139.814 28.2639L116.498 94.2665L176.038 213.933L274.57 248.741L343.37 381.223L312.393 468.912L365.92 571.076Z" fill="#143AFF"/>
</g>
</svg>
